"Vikings" handlar om Ragnar Lodbrok, en av sin tids stora hjältar. Serien följer både hans familj och Ragnars väg mot vikingakonungens tron. Ragnar var inte bara en krigare utan fruktan, utan också man som tillbad gudarna. Enligt legenden var han i direkt nedstigande led släkt med Oden, kriget och krigarnas gud."Vikings" handlar om Ragnar Lodbrok, en av sin tids stora hjältar. Serien följer både hans familj och Ragnars väg mot vikingakonungens tron. Ragnar var inte bara en krigare utan fruktan, utan också man som tillbad gudarna. Enligt legenden var han i direkt nedstigande led släkt med Oden, kriget och krigarnas gud.

General
Format                                   : Matroska
Format version                           : Version 1
File size                                : 1.02 GiB
Duration                                 : 44mn 20s
Overall bit rate                         : 3 307 Kbps
Encoded date                             : UTC 2013-03-10 13:55:56
Writing application                      : mkvmerge v2.2.0 ('Turn It On Again') built on Mar  4 2008 12:58:26
Writing library                          : libebml v0.7.7 + libmatroska v0.8.1

Video
ID                                       : 1
Format                                   : AVC
Format/Info                              : Advanced Video Codec
Format profile                           : Baseline@L3.1
Format settings, CABAC                   : No
Format settings, ReFrames                : 1 frame
Format settings, GOP                     : M=1, N=12
Codec ID                                 : V_MPEG4/ISO/AVC
Duration                                 : 44mn 20s
Bit rate                                 : 2 857 Kbps
Width                                    : 1 280 pixels
Height                                   : 720 pixels
Display aspect ratio                     : 16:9
Frame rate mode                          : Constant
Frame rate                               : 23.976 fps
Color space                              : YUV
Chroma subsampling                       : 4:2:0
Bit depth                                : 8 bits
Scan type                                : Progressive
Bits/(Pixel*Frame)                       : 0.129
Stream size                              : 906 MiB (86%)
Default                                  : Yes
Forced                                   : No

Audio
ID                                       : 2
Format                                   : AC-3
Format/Info                              : Audio Coding 3
Mode extension                           : CM (complete main)
Format settings, Endianness              : Big
Codec ID                                 : A_AC3
Duration                                 : 44mn 20s
Bit rate mode                            : Constant
Bit rate                                 : 384 Kbps
Channel(s)                               : 6 channels
Channel positions                        : Front: L C R, Side: L R, LFE
Sampling rate                            : 44.1 KHz
Bit depth                                : 16 bits
Compression mode                         : Lossy
Stream size                              : 122 MiB (12%)
Default                                  : Yes

Release date: N/A
Street date: N/A
  
http://bayimg.com/gakJJAaEH 
http://bayimg.com/gaKJKaAEh 
http://bayimg.com/GaKJlaaEh 
http://bayimg.com/gakJPaAEH

Oversattaresida : www.swesub.nu
Oversattare: SSG - SweSUB Group Macchiavelli och Aqaurius 
Synkare: N/A

Skadespelare: Travis Fimmel Clive Standen Katheryn Winnick med flera. 

Kalla: vikings.s01e02.720p.hdtv.x264-preair 

Torrenten skapat av Svennen med inbränd swesub.	